<?xml version="1.0" standalone="no"?>
<!DOCTYPE svg PUBLIC "-//W3C//DTD SVG 20010904//EN"
 "http://www.w3.org/TR/2001/REC-SVG-20010904/DTD/svg10.dtd">
<svg version="1.0" xmlns="http://www.w3.org/2000/svg"
 width="700.000000pt" height="700.000000pt" viewBox="0 0 700.000000 700.000000"
 preserveAspectRatio="xMidYMid meet">
<metadata>
Created by potrace 1.14, written by Peter Selinger 2001-2017
</metadata>
<g transform="translate(0.000000,700.000000) scale(0.100000,-0.100000)"
fill="#000000" stroke="none">
<path d="M3290 6495 c0 -160 -3 -216 -12 -222 -7 -4 -102 -8 -210 -8 -108 0
-200 -4 -205 -9 -12 -11 -13 -376 -2 -398 9 -16 27 -18 208 -18 159 0 201 -3
210 -14 9 -11 11 -87 9 -284 l-3 -270 -65 -65 c-227 -227 -797 -811 -804 -825
-6 -9 -10 -191 -10 -419 -1 -343 -3 -405 -16 -417 -12 -12 -525 -310 -780
-454 -152 -85 -447 -254 -460 -262 -8 -5 -33 -19 -55 -31 -73 -39 -95 -58 -87
-77 14 -34 185 -327 195 -334 14 -9 25 -4 168 77 147 84 156 88 162 72 2 -7 4
-345 4 -753 0 -407 3 -746 7 -752 11 -18 1712 -17 1723 1 4 6 8 217 9 467 1
442 2 456 22 496 27 54 69 88 133 109 105 35 203 -2 263 -98 l30 -48 -1 -464
c0 -328 3 -465 11 -468 6 -2 397 -4 868 -4 612 0 858 3 861 11 1 6 2 344 2
751 -1 407 0 746 3 752 4 13 67 -18 232 -112 89 -51 96 -51 125 -5 14 22 25
41 25 43 0 2 32 60 70 128 39 68 70 131 70 140 0 16 -19 30 -110 82 -657 372
-1250 714 -1265 729 -19 18 -20 32 -20 426 l-1 408 -22 30 c-13 16 -207 214
-431 439 -224 226 -412 419 -418 430 -15 30 -16 534 -2 552 10 11 51 13 206
13 136 -1 199 2 208 10 12 10 15 50 14 199 0 102 -4 193 -9 200 -7 12 -45 15
-210 15 -167 1 -202 4 -210 16 -5 8 -9 80 -9 160 1 80 1 172 0 206 l-1 61
-210 1 -210 0 0 -213z m566 -1974 c167 -167 305 -311 306 -320 1 -9 2 -211 2
-448 1 -418 2 -433 21 -452 11 -11 99 -64 195 -119 604 -343 642 -365 649
-386 12 -33 11 -1319 -1 -1333 -15 -19 -867 -19 -873 0 -3 6 -6 129 -8 272 -3
222 -7 270 -24 330 -31 110 -79 191 -163 276 -134 135 -283 201 -450 202 -289
0 -534 -179 -627 -458 -25 -77 -26 -90 -30 -345 -2 -146 -5 -271 -8 -277 -6
-19 -858 -19 -873 0 -15 18 -14 1314 1 1339 7 11 92 65 190 121 98 56 192 110
210 120 18 11 123 71 234 134 111 63 208 122 214 130 10 11 12 120 11 445 0
236 3 440 8 453 9 22 600 620 644 651 25 17 -13 51 372 -335z"/>
<path d="M3449 4066 c-70 -21 -108 -55 -140 -123 -19 -40 -20 -65 -21 -374 0
-182 4 -335 9 -340 6 -6 218 -12 375 -9 19 0 29 7 34 23 4 12 7 159 6 327 -2
347 -8 382 -68 443 -21 20 -57 43 -83 51 -52 16 -62 16 -112 2z"/>
</g>
</svg>
