<?xml version="1.0" encoding="utf-8"?>
<!-- Generator: Adobe Illustrator 26.0.1, SVG Export Plug-In . SVG Version: 6.00 Build 0)  -->
<svg version="1.1" id="Слой_1" xmlns="http://www.w3.org/2000/svg" xmlns:xlink="http://www.w3.org/1999/xlink" x="0px" y="0px"
	 viewBox="0 0 900 900" style="enable-background:new 0 0 900 900;" xml:space="preserve">
<style type="text/css">
	.st0{fill:none;}
	.st1{fill:#D1AC77;}
</style>
<circle class="st0" cx="450" cy="450" r="450"/>
<g>
	<path class="st1" d="M478.7,768.4c0-2.2,0-4,0-5.8c0-35.5-0.4-71,0.2-106.5c0.3-17.3-16.4-32.8-35.3-27.8
		c-14.4,3.8-22.3,13.2-22.3,28c0,35.7-0.1,71.3,0.1,107c0,4.6-1.4,5.5-5.7,5.5c-70.8-0.1-141.7-0.1-212.5,0c-4.9,0-5.6-1.7-5.6-6
		c0.1-60.7,0.1-121.3,0.1-182c0-1.5,0-3,0-4.5c0-4-1.4-4.6-4.9-2.6c-10.8,6.3-21.8,12.2-32.6,18.4c-3.3,1.9-5.6,2.2-7.7-1.6
		c-7.5-13.4-15.1-26.6-22.8-39.8c-1.5-2.5-0.6-4,1.7-5.2c19.1-10.9,38.1-21.7,57.2-32.6C214.7,498,240.9,483,267,468
		c12.8-7.4,25.6-14.8,38.6-22c3-1.6,3.7-3.5,3.7-6.7c-0.1-32.8-0.1-65.7,0.1-98.5c0-2.3,1.2-5.1,2.8-6.8
		c36-36.7,72.2-73.3,108.2-110.1c1.3-1.4,2.2-3.8,2.2-5.7c0.2-21.3,0-42.7,0.2-64c0-4.1-1.6-5.1-5.3-5.1
		c-14.8,0.1-29.7-0.1-44.5,0.1c-4.8,0.1-6.4-1.5-6.3-6.3c0.2-14,0.3-28,0-42c-0.1-5.2,1.8-6.5,6.7-6.4c14.7,0.2,29.3,0,44,0.2
		c4.1,0.1,5.5-1.3,5.5-5.4c-0.2-15.3-0.1-30.7-0.1-46c0-1.8,0-3.6,0-5.7c18.3,0,36,0,54.3,0c0.1,1.9,0.2,3.7,0.2,5.4
		c0,15.3,0.1,30.7-0.1,46c-0.1,4.3,1.2,5.9,5.7,5.8c14.8-0.2,29.7,0.1,44.5-0.2c4.6-0.1,6.1,1.6,6,6.1c-0.2,14.2-0.2,28.3,0,42.5
		c0.1,4.5-1.3,6.2-6,6.1c-14.8-0.2-29.7,0.1-44.5-0.2c-4.4-0.1-5.7,1.4-5.7,5.8c0.2,20.8,0,41.7,0.2,62.5c0,2.5,1.3,5.6,3,7.3
		c32.8,33,65.7,65.8,98.5,98.8c3.8,3.9,7.5,8,10.8,12.3c1,1.2,0.9,3.4,1,5.2c0.1,32.7,0.1,65.3,0,98c0,3.6,1,5.5,4.3,7.4
		c26.2,14.8,52.2,30,78.4,44.9c29,16.6,58.1,33.1,87.1,49.7c1.3,0.7,2.6,1.5,3.9,2.3c7.6,4.6,7.6,4.6,3.1,12.6
		c-6.6,11.6-13.3,23-19.7,34.7c-2.3,4.3-4.9,3.4-8.1,1.5C729,586,718.3,580,707.5,574c-4.3-2.4-5-2-5,3.2c0,24.8,0,49.7,0,74.5
		c0,37.2,0,74.3,0,111.5c0,1.6,0,3.3,0,5.3C627.6,768.4,553.4,768.4,478.7,768.4z M647.7,626.3c0-27.3,0-54.7,0-82
		c0-3.2-0.5-5.7-3.7-7.5c-34.3-19.4-68.5-38.9-102.8-58.4c-3.9-2.2-5.6-4.7-5.6-9.5c0.2-35,0.1-70,0.2-105c0-3.8-1.1-6.5-3.8-9.2
		c-25.7-25.5-51.2-51.1-76.8-76.7c-5-5-5.4-5-10.4-0.1c-25.3,25.3-50.6,50.7-76.1,75.9c-3.2,3.2-4.6,6.4-4.6,10.9
		c0.2,34.8,0,69.7,0.2,104.5c0,4.3-1.5,6.9-5.1,8.8c-4.7,2.5-9.4,5-14,7.7c-29.3,16.8-58.6,33.6-87.9,50.3c-3.4,2-5.1,4-5.1,8.1
		c0.1,54.7,0.1,109.3,0,164c0,4.5,1.5,5.7,5.8,5.7c34.3-0.1,68.7-0.2,103,0c4.8,0,5.9-1.7,5.8-6.1c-0.2-16.5,0.1-33-0.1-49.5
		c-0.2-15.7,3.7-30.3,11.8-43.7c16.2-26.6,40.2-40.6,71.2-41.7c14.2-0.5,27.6,3.5,40,10.7c27.7,16.1,42.4,40.2,43.5,72.1
		c0.6,17.3,0.3,34.7,0,52c-0.1,4.9,1.5,6.2,6.3,6.2c34-0.2,68-0.2,102,0c5.2,0,6.4-1.7,6.4-6.6C647.6,680.3,647.7,653.3,647.7,626.3
		z"/>
	<path class="st1" d="M422.7,442.1c0-12.2,0-24.3,0-36.5c0.1-15.8,9.4-26.8,24.9-29.6c8.5-1.5,20.7,4.5,25.3,13.6
		c2.4,4.7,4.1,10.4,4.2,15.6c0.4,24.8,0.1,49.6,0.3,74.4c0,4.9-1.4,6.8-6.5,6.6c-14.1-0.3-28.3-0.2-42.5,0c-4.4,0.1-5.8-1.5-5.8-5.8
		C422.9,467.7,422.7,454.9,422.7,442.1z"/>
</g>
</svg>
