<?xml version="1.0" encoding="utf-8"?>
<!-- Generator: Adobe Illustrator 26.0.1, SVG Export Plug-In . SVG Version: 6.00 Build 0)  -->
<svg version="1.1" id="Layer_1" xmlns="http://www.w3.org/2000/svg" xmlns:xlink="http://www.w3.org/1999/xlink" x="0px" y="0px"
	 viewBox="0 0 482.7 93.4" style="enable-background:new 0 0 482.7 93.4;" xml:space="preserve">
<style type="text/css">
	.st0{fill:#D1AC77;}
</style>
<g>
	<path class="st0" d="M26.6,49.8c0,0.4-0.4,0.9-1.2,1.3s-1.7,0.9-2.8,1.2c-1,0.3-1.9,0.6-2.4,0.6H2.4c-0.7,0-1-1.5-1-4.5
		c0-0.8,0-2.6,0.1-5.4l0.1-2.6c0-1.3,0.1-4.4,0.3-9c0.1-4.8,0.2-8,0.2-9.9c0-2.5-0.1-4.5-0.4-6c-0.2-1.6-0.8-2.8-1.6-3.8
		c-0.3-0.4,0.4-0.8,2.1-1.1S5.5,10,7.1,10h1.8h15.4l0.1,0.1c0,2.3-0.4,4.7-1.3,6.9c-0.9,2.2-2.1,4.2-3.7,6.1l-0.8,0.8
		c-0.8,0.7-1.3,1.3-1.8,1.9c-0.4,0.6-0.7,1.1-0.7,1.7c0,0.3,0.1,0.6,0.2,1c0.6,0.9,1.6,2.1,2.9,3.7c1.3,1.5,2.2,2.6,2.7,3.3
		C25.2,39.8,26.6,44.6,26.6,49.8z M19.8,49.8c0-2-0.6-4.2-1.7-6.8c-1-2.6-2.6-4.9-4.6-7.4l-1.1-1.1c-0.9-0.9-1.6-1.7-2-2.3
		c-0.4-0.7-0.7-1.3-0.7-2c0-0.6,0.2-1.2,0.7-1.7c0.2-0.2,0.8-0.9,1.8-2c1.1-1.2,1.9-2.1,2.2-2.7c1.9-2.8,2.8-6.1,2.8-10.3
		c0-0.2-0.1-0.4-0.2-0.4c-0.1,0-0.3-0.1-0.6,0c-0.2,0-0.3,0-0.4,0H9H8.8c0,0.4,0,1.1,0,2c0,1.2,0,2.8-0.1,4.8c0,1.1-0.1,4-0.1,8.7
		c-0.1,4.7-0.1,8.6-0.1,11.7c0,2.3,0,4.2,0.1,5.7s0.3,2.7,0.7,3.8C9.3,49.8,19.8,49.8,19.8,49.8z"/>
	<path class="st0" d="M57.1,49.8c0,0.4-0.4,0.9-1.2,1.3c-0.8,0.4-1.7,0.9-2.8,1.2c-1,0.3-1.9,0.6-2.4,0.6H32.9c-0.7,0-1-1.5-1-4.5
		c0-0.8,0-2.6,0.1-5.4l0.1-2.6c0-1.3,0.1-4.4,0.3-9c0.1-4.8,0.2-8,0.2-9.9c0-2.5-0.1-4.5-0.4-6c-0.2-1.6-0.8-2.8-1.6-3.8
		c-0.3-0.4,0.4-0.8,2.1-1.1c1.7-0.3,3.3-0.6,4.9-0.6h1.8h15.4l0.1,0.1c0,2.3-0.4,4.7-1.3,6.9s-2.1,4.2-3.7,6.1l-0.8,0.8
		c-0.8,0.7-1.3,1.3-1.8,1.9c-0.4,0.6-0.7,1.1-0.7,1.7c0,0.3,0.1,0.6,0.2,1c0.6,0.9,1.6,2.1,2.9,3.7c1.3,1.5,2.2,2.6,2.7,3.3
		C55.7,39.8,57.1,44.6,57.1,49.8z M50.4,49.8c0-2-0.6-4.2-1.7-6.8c-1-2.6-2.6-4.9-4.6-7.4L43,34.5c-0.9-0.9-1.6-1.7-2-2.3
		c-0.4-0.7-0.7-1.3-0.7-2c0-0.6,0.2-1.2,0.7-1.7c0.2-0.2,0.8-0.9,1.8-2c1.1-1.2,1.9-2.1,2.2-2.7c1.9-2.8,2.8-6.1,2.8-10.3
		c0-0.2-0.1-0.4-0.2-0.4s-0.3-0.1-0.6,0c-0.2,0-0.3,0-0.4,0h-7h-0.2c0,0.4,0,1.1,0,2c0,1.2,0,2.8-0.1,4.8c0,1.1-0.1,4-0.1,8.7
		c-0.1,4.7-0.1,8.6-0.1,11.7c0,2.3,0,4.2,0.1,5.7s0.3,2.7,0.7,3.8H50.4z"/>
	<path class="st0" d="M86.1,39.2c0,1-0.1,1.9-0.4,2.8c-0.7,2.3-1.9,4.2-3.6,5.7s-3.7,2.8-6,3.9c-2.2,1.1-4.4,1.7-6.4,1.7
		c-0.1,0-0.2,0-0.3,0c-0.2,0-0.2,0-0.2,0c-0.2-1.1-0.7-2.2-1.2-3.5c-0.6-1.1-1.2-2.5-2.1-3.9c-1.3-2.2-2.2-4-2.7-5.4
		c-1.2-3.5-1.9-6.8-1.9-10.2c0-1.6,0.1-3,0.3-4.4c0.4-2.1,1.1-4.1,2.1-6c1-1.9,2.2-3.5,3.8-4.7c2.1-1.7,4.6-3,7.2-4
		c2.7-0.9,5.3-1.3,7.9-1.2c0.1,0,0.2,0.1,0.2,0.4v0.1c0,1.3-0.4,3.5-1.2,6.2c-0.8,2.8-1.3,4.7-1.7,5.6c-0.2,0.6-0.4,0.8-0.9,0.8
		c-0.2,0-0.4-0.1-0.6-0.3c-0.1-0.2-0.2-0.6-0.2-0.9c-0.2-3.5-1.1-6.4-2.7-8.8c-0.9,0.3-1.9,0.8-2.8,1.5s-1.8,1.6-2.6,2.8
		c-0.9,1.5-1.4,3-1.9,4.7c-0.4,1.8-0.7,3.5-0.7,5.2c0,0.6,0,1,0,1.2l0.3-0.2c1.2-0.7,2.7-1.2,4.2-1.6c1.7-0.3,3.2-0.4,4.9-0.4
		c1.3,0,2.6,0.1,3.6,0.3s1.4,0.4,1.4,0.7c0,2.2-1.1,4.5-3.4,6.7c-0.4,0.4-0.9,0.8-1.1,0.8c-0.3,0-0.6-0.4-0.7-1.2
		c-0.3-2.6-2-3.9-5.1-3.9c-1.3,0-2.7,0.2-4,0.6c0.3,3.2,1.3,6.6,2.8,9.9l1.7,3.1c1.6,2.6,2.6,4.7,3,6.4c0.4-0.2,1.1-0.8,1.9-1.6
		c1-1.1,1.7-2.8,2-4.9c0-0.2,0-0.6,0-1.1c0-1.7-0.6-2.7-1.6-2.8c-0.3-0.1-0.1-0.3,0.6-0.8c0.7-0.4,1.1-0.8,1.4-0.9
		c0.2-0.1,0.6-0.2,1.1-0.6c0.6-0.3,1.1-0.6,1.7-0.7s1-0.2,1.3-0.1C85.4,36.5,86.1,37.5,86.1,39.2z"/>
	<path class="st0" d="M124.5,50.5L124.5,50.5c0,1.3-0.3,3.6-1.1,6.6s-1.3,5-1.8,6c-0.2,0.6-0.4,0.8-0.9,0.8c-0.2,0-0.4-0.1-0.6-0.3
		c-0.1-0.2-0.2-0.6-0.3-1c-0.2-3.6-1.2-6.8-3.1-9.6H98.1c-0.8,1.1-1.4,2.5-2.1,4c-0.7,1.7-1,3.5-1.1,5.6c0,0.9-0.3,1.3-0.8,1.3
		c-0.3,0-0.7-0.2-0.9-0.8c-0.4-1.1-1.1-2.9-1.8-5.1c-0.7-2.2-1.1-4-1.1-5.4v-0.1c0.2-0.3,0.7-0.7,1.3-1.1c0.7-0.4,1.7-0.8,2.7-1
		c0-0.3,0-0.9,0-1.7c0-2.1,0.1-3.9,0.3-5.5c0.3-2.1,0.7-4.1,1.2-6.2c0.6-2.1,1.6-4.6,3.1-7.5c1.6-2.9,3.8-5.5,6.5-7.8
		c-0.8-1.9-1.4-3.5-1.8-4.6c-0.4-1.1-0.6-2.1-0.6-3s0.4-1.6,1.3-2.1c0.8-0.6,1.7-1,2.6-1.3c1.2-0.4,2.1-0.7,2.7-0.7
		c0.2,0,0.4,0,0.4,0.1s0,0.3,0,0.7s-0.1,0.9,0,1.5c0,1.7,1.2,5.4,3.8,10.9c1.3,3.2,2.8,7.3,4,12c1.3,4.8,2.1,8.1,2.4,10
		c0.3,2,0.8,3.6,1.3,4.7h1.7C124.2,49.7,124.5,50,124.5,50.5z M101.3,42.3c0,3,0.3,5.5,1.1,7.5h11.4c-0.2-2-0.6-3.8-0.8-5.4
		c-0.8-3.8-1.8-7.6-2.8-11.3c-1.1-3.7-2.2-6.8-3.4-9.3c-2.9,3.1-4.7,8.4-5.3,16C101.3,40.8,101.3,41.7,101.3,42.3z"/>
	<path class="st0" d="M153.6,39.2c0,1-0.1,1.9-0.4,2.8c-0.7,2.3-1.9,4.2-3.6,5.7c-1.7,1.5-3.7,2.8-6,3.9c-2.2,1.1-4.4,1.7-6.4,1.7
		c-0.1,0-0.2,0-0.3,0c-0.2,0-0.2,0-0.2,0c-0.2-1.1-0.7-2.2-1.2-3.5c-0.6-1.1-1.2-2.5-2.1-3.9c-1.3-2.2-2.2-4-2.7-5.4
		c-1.2-3.5-1.9-6.8-1.9-10.2c0-1.6,0.1-3,0.3-4.4c0.4-2.1,1.1-4.1,2.1-6s2.2-3.5,3.8-4.7c2.1-1.7,4.6-3,7.2-4
		c2.7-0.9,5.3-1.3,7.9-1.2c0.1,0,0.2,0.1,0.2,0.4v0.1c0,1.3-0.4,3.5-1.2,6.2c-0.8,2.8-1.3,4.7-1.7,5.6c-0.2,0.6-0.4,0.8-0.9,0.8
		c-0.2,0-0.4-0.1-0.6-0.3c-0.1-0.2-0.2-0.6-0.2-0.9c-0.2-3.5-1.1-6.4-2.7-8.8c-0.9,0.3-1.9,0.8-2.8,1.5c-0.9,0.7-1.8,1.6-2.6,2.8
		c-0.9,1.5-1.4,3-1.9,4.7c-0.4,1.8-0.7,3.5-0.7,5.2c0,0.6,0,1,0,1.2l0.3-0.2c1.2-0.7,2.7-1.2,4.2-1.6c1.7-0.3,3.2-0.4,4.9-0.4
		c1.3,0,2.6,0.1,3.6,0.3s1.4,0.4,1.4,0.7c0,2.2-1.1,4.5-3.4,6.7c-0.4,0.4-0.9,0.8-1.1,0.8c-0.3,0-0.6-0.4-0.7-1.2
		c-0.3-2.6-2-3.9-5.1-3.9c-1.3,0-2.7,0.2-4,0.6c0.3,3.2,1.3,6.6,2.8,9.9l1.7,3.1c1.6,2.6,2.6,4.7,3,6.4c0.4-0.2,1.1-0.8,1.9-1.6
		c1-1.1,1.7-2.8,2-4.9c0-0.2,0-0.6,0-1.1c0-1.7-0.6-2.7-1.6-2.8c-0.3-0.1-0.1-0.3,0.6-0.8c0.7-0.4,1.1-0.8,1.4-0.9
		c0.2-0.1,0.6-0.2,1.1-0.6c0.6-0.3,1.1-0.6,1.7-0.7c0.6-0.1,1-0.2,1.3-0.1C152.9,36.5,153.6,37.5,153.6,39.2z"/>
	<path class="st0" d="M181.6,53c-1.7,0.3-3.2,0.6-4.8,0.6h-0.9c-0.7,0-1-1.6-1-4.5c0-0.9,0-2.7,0.1-5.6c0.2-4.7,0.3-8.1,0.3-10.3
		h-9.5c0,2.6,0,5.4,0,8.4c0,2.7,0.1,4.9,0.2,6.6c0.2,1.7,0.6,3,1.3,3.9c0.3,0.4-0.3,0.8-2,1.1c-1.7,0.3-3.2,0.6-4.8,0.6h-0.9
		c-0.7,0-1-1.6-1-4.7c0-0.9,0-2.7,0.1-5.5l0.1-2.5c0-1.3,0.1-4.4,0.3-9.1c0.1-4.8,0.2-8,0.2-10c0-2.6-0.1-4.4-0.2-5.4
		c-0.1-1-0.7-2-1.3-3c-0.2-0.3,0.1-0.8,1-1.3c0.9-0.6,2-1.1,3.2-1.6c1.2-0.4,2.3-0.7,3.1-0.6c0.7,0,1,1.7,1,4.8
		c0,0.8-0.1,2.6-0.2,5.4l-0.1,9.7h9.7l0.1-8.9c0-2.2-0.1-3.8-0.2-4.7c-0.1-1-0.6-1.9-1.3-2.8c-0.2-0.3,0.1-0.8,1-1.3
		c0.9-0.6,1.9-1.1,3.2-1.6c1.3-0.4,2.3-0.7,3.1-0.6c0.7,0,1,1.7,1,5c0,1.3,0,3.1-0.1,5.1l-0.2,20.5c0,2.9,0.1,5.4,0.2,7.1
		c0.2,1.8,0.7,3.2,1.3,4.1C183.8,52.2,183.1,52.6,181.6,53z"/>
	<path class="st0" d="M212.2,38.5c0,0.8-0.1,1.6-0.3,2.6c-0.7,2.7-1.8,4.8-3.3,6.5c-1.6,1.6-3.6,3-5.9,4.1c-2.3,1.1-4.7,1.7-6.8,1.8
		c-0.1,0-0.2,0-0.3,0c-0.2,0-0.2,0-0.2,0c-0.2-1.2-0.7-2.3-1.1-3.3c-0.4-1.1-1.1-2.5-2-4.1c-1.2-2.2-2-3.9-2.4-5.1
		c-1.2-3.6-1.9-6.9-1.9-10.3c0-1.5,0.1-2.9,0.3-4.2c0.9-4.9,2.8-8.5,5.5-10.7c2.2-1.7,4.6-3,7.2-4c2.7-0.9,5.2-1.3,7.9-1.2
		c0.1,0,0.2,0.1,0.2,0.4l0,0v-0.1c-0.1,1.3-0.4,3.5-1.2,6.1c-0.8,2.8-1.2,4.7-1.7,5.7c-0.2,0.6-0.6,0.8-0.9,0.8
		c-0.4,0-0.8-0.4-0.8-1.3c-0.2-3.2-1-6.1-2.6-8.8c-2.3,0.6-4.1,2-5.3,4.1c-1.4,2.7-2.2,6-2.1,10c0,4.2,1,8.6,3,12.8
		c0.4,0.9,0.9,1.9,1.6,3.1c0.8,1.5,1.3,2.6,1.8,3.5c0.4,0.9,0.8,1.9,1,2.9c0.4-0.2,0.8-0.7,1.3-1.2c0.4-0.6,0.8-1,1-1.5
		c0.9-1.6,1.3-3.2,1.6-5.1c0.1-0.8,0-1.5-0.2-2.2s-0.7-1.1-1.3-1.2c-0.4-0.1-0.2-0.3,0.6-0.9s1.2-0.8,1.3-0.9
		c0.2-0.1,0.6-0.2,1.1-0.6c0.6-0.3,1.1-0.6,1.7-0.7s1-0.2,1.4-0.1C211.6,35.7,212.2,36.7,212.2,38.5z"/>
	<path class="st0" d="M224.4,42.5c0,2.2,0.1,4.1,0.3,5.7s0.7,2.8,1.2,3.6c0.3,0.4-0.3,0.8-2,1.1s-3.2,0.6-4.8,0.6h-0.9
		c-0.7,0-1-1.6-1-4.6c0-0.9,0-2.7,0.1-5.6c0-0.6,0.1-3.6,0.2-8.8c0.2-9,0.3-13.7,0.3-14.3c0-2-0.1-3.5-0.2-4.2
		c-0.1-0.8-0.6-1.7-1.2-2.6c-0.2-0.3,0.1-0.8,0.9-1.3c0.9-0.6,2-1.1,3.2-1.6c1.3-0.4,2.3-0.7,3.1-0.6c0.6,0,0.9,1.7,0.9,4.9
		c0,1.5,0,3.1-0.1,5.2c0,2.3-0.1,5.6-0.1,9.7c0,4-0.1,7.7-0.1,10.8v1.9L224.4,42.5L224.4,42.5L224.4,42.5z M239.4,39.9
		c1.7,3.2,2.9,6,3.8,8.5c0.6,1.5,1,2.5,1.3,2.8s0.4,0.6,0.4,0.7c-0.1,0.4-1.1,0.8-2.8,1.1s-3.1,0.4-4.2,0.4c-0.4,0-0.8-0.1-0.9-0.3
		c-0.1-0.2-0.3-0.7-0.6-1.5c-0.1-0.2-0.2-0.7-0.3-1.2c-0.1-0.6-0.3-1-0.6-1.6c-0.7-2-1.8-4.5-3.4-7.4c-1.6-2.9-3.2-5.5-5-7.7
		c-0.1-0.2-0.4-0.6-0.9-1.1c-0.4-0.6-0.8-1-0.9-1.6c-0.2-0.4-0.3-1-0.3-1.7c0-1.5,0.6-3.6,1.7-6.5c1-2.5,2.6-4.7,4.7-6.6
		c2.1-1.9,4.2-3.3,6.4-4.5c1.1-0.6,2.2-1,3.3-1.2c1.1-0.3,2-0.4,2.7-0.4c0.8,0,1.2,0.2,1.2,0.6c0,1.3-0.3,3.5-1.1,6.4
		c-0.8,2.9-1.3,4.8-1.8,5.7c-0.2,0.6-0.4,0.9-0.9,0.9c-0.2,0-0.4-0.1-0.6-0.3c-0.1-0.2-0.2-0.6-0.3-0.9c-0.1-1.9-0.4-3.3-0.8-4.6
		c-0.3-1.2-0.7-2.1-1-2.8s-0.6-0.9-0.6-0.8c-0.9,0.4-1.9,1.3-3,2.6c-1.1,1.2-1.9,2.7-2.4,4.2c-0.4,1.3-0.8,2.2-0.9,3
		c-0.2,0.7-0.2,1.5-0.2,2.1c0,1.5,0.6,2.8,1.6,4.1C235.6,33.6,237.7,36.7,239.4,39.9z"/>
	<path class="st0" d="M273.7,52.7c-1.7,0.3-3.2,0.6-4.8,0.6H268c-0.7,0-1-1.6-1-4.7c0-0.8,0-2.7,0.1-5.4l0.4-14.7
		c-2.9,2.2-5.3,4.7-7.3,7.4s-3.1,5.1-3.1,7.3v1.9c0.1,1.6,0.2,3,0.4,4.1c0.2,1.1,0.6,2,1,2.7c0.3,0.4-0.3,0.8-2,1.1
		s-3.2,0.6-4.8,0.6h-0.9c-0.7,0-1-1.6-1-4.5c0-1.5,0-2.8,0.1-4.1v-1.6c0-0.7,0.1-3.6,0.2-8.7c0.2-6.5,0.3-10.9,0.3-13.6
		c0-2.2-0.1-3.8-0.2-4.7c-0.1-1-0.6-1.9-1.3-2.8c-0.2-0.3,0.1-0.8,1-1.3c0.9-0.6,1.9-1.1,3.2-1.6c1.2-0.4,2.3-0.7,3.1-0.6
		c0.7,0,1,1.7,1,5c0,1.3,0,3-0.1,5.1c0-0.1,0,1.6-0.1,5c0,1.6,0,4.1-0.1,7.7c1.3-1.5,2.9-2.7,4.7-3.9c1.8-1.1,3.7-2.2,5.9-3.3
		l0.1-3.8c0-2.6-0.1-4.4-0.2-5.4s-0.7-2-1.3-3c-0.2-0.3,0.1-0.8,1-1.3c0.9-0.6,2-1.1,3.2-1.6c1.2-0.4,2.3-0.7,3.1-0.6
		c0.7,0,1,1.7,1,4.8c0,0.7-0.1,2.5-0.2,5.4c0,2.7-0.1,6.1-0.1,10.6c0,4.4-0.1,8-0.1,10.7s0.1,4.9,0.2,6.6c0.2,1.7,0.6,3,1.3,3.9
		C276,52.1,275.3,52.4,273.7,52.7z"/>
	<path class="st0" d="M304.3,52.9c-1.7,0.3-3.2,0.6-4.8,0.6h-0.9c-0.7,0-1-1.6-1-4.6c0-0.8,0-1.9,0.1-3.2v-2.3
		c0.2-3.5,0.3-8.4,0.6-14.7c-2.9,2.2-5.3,4.7-7.3,7.3c-2,2.7-3.1,5-3.1,7.3c0,2.1,0.1,3.9,0.3,5.5c0.2,1.5,0.6,2.6,1.2,3.3
		c0.3,0.4-0.4,0.8-2,1.1c-1.6,0.3-3.2,0.6-4.8,0.6h-0.9c-0.3,0-0.6-0.4-0.8-1.2c-0.1-0.8-0.2-1.9-0.2-3.2c0-0.9,0-2.7,0.1-5.6
		c0.4-12.4,0.6-19.9,0.6-22.4c0-2.1-0.1-3.7-0.2-4.7c-0.1-0.9-0.6-1.9-1.2-2.9c-0.2-0.3,0.1-0.8,1-1.3c0.9-0.6,1.9-1.1,3.2-1.6
		c1.2-0.4,2.3-0.7,3.1-0.6c0.7,0.1,1,1.8,1,5c0,0.9,0,2.1-0.1,3.5v1.8c-0.1,2.1-0.1,6.4-0.2,12.6c1.3-1.5,2.9-2.7,4.7-3.9
		c1.8-1.1,3.7-2.3,5.9-3.3v-3.8c0-2.6-0.1-4.4-0.2-5.4s-0.6-2-1.3-3c-0.2-0.3,0.1-0.8,1-1.3s1.9-1.1,3.2-1.6
		c1.2-0.4,2.3-0.7,3.1-0.6c0.7,0.1,1,1.7,1,4.8c0,0.9,0,2.1-0.1,3.6v1.8c0,2.7-0.1,6.2-0.1,10.6s-0.1,7.9-0.1,10.7
		c0,2.7,0.1,4.8,0.2,6.6c0.2,1.7,0.6,3,1.2,3.9C306.5,52.1,305.9,52.5,304.3,52.9z M291.1,7.7c-0.6-1-1.1-1.9-1.9-2.8
		c-0.4-0.6-0.7-1-0.8-1.3c-0.1-0.6,0.2-1.1,1-1.7c0.8-0.6,1.8-1,3-1.3s2.2-0.6,3-0.6c0.6,0,0.9,0.6,0.9,1.7c0,1.2-0.3,2.9-0.9,4.9
		s-1.1,3.7-1.6,5.1c-0.2,0.4-0.4,0.8-0.8,0.8c-0.2,0-0.3-0.1-0.6-0.3c-0.2-0.2-0.3-0.6-0.3-1C292,9.8,291.7,8.6,291.1,7.7z"/>
	<path class="st0" d="M368.6,48.5c0.4,1.5,0.8,2.5,0.8,3c0.1,0.2-0.2,0.6-1,0.8c-0.7,0.2-1.6,0.4-2.4,0.6c-1.1,0.1-2,0.2-2.9,0.2
		c-1.1,0-1.7-0.2-1.8-0.6c0-0.1-0.1-0.6-0.2-1.5c-0.2-1.3-0.4-2.5-0.7-3.3c-0.2-1-0.6-2-1-3.1c-1.3-3.6-3.1-6.8-5.2-9.7
		c-0.6-0.8-1-1.5-1.4-2c-0.1-0.1-0.2-0.3-0.3-0.4c-0.1-0.1-0.3-0.4-0.4-0.7c-1.6,3.7-2.7,7.1-3.3,10.2c-0.8,3.1-1.1,5.5-1.1,7.1
		c0,0.8,0.1,1.5,0.3,2c0.2,0.6,0.3,0.9,0.3,1s-0.1,0.2-0.4,0.3c-1,0.3-1.9,0.6-2.7,0.7c-0.8,0.1-1.6,0.2-2.4,0.2s-1.2-0.1-1.6-0.2
		c-0.3-0.2-0.4-0.4-0.6-1c-0.1-0.2-0.1-0.6-0.1-1.2c0-2.2,0.9-5.6,2.7-10s3.7-8.8,5.9-13.2c-0.1-0.1-0.6-0.8-1.3-1.9l-2-2.8
		c-1.4-1.9-2.4-3.5-3-4.7c-0.6-1.1-0.9-2.3-0.9-3.5c0-0.4,0-0.8,0-1c0.1-1.1,0.7-2,1.7-2.6s1.9-1,2.8-1.2s1.4-0.4,1.7-0.4
		c0.4-0.2,0.9-0.2,1.1-0.2s0.2,0,0.2,0.1s-0.1,0.3-0.4,0.7c-0.2,0.2-0.4,0.6-0.6,0.8c-0.1,0.2-0.2,0.7-0.2,1.1c0,0.6,0,1,0.1,1.5
		c0.2,1,1.8,3.5,4.7,7.5c2.4-3.7,5.1-6.5,7.9-8.4l0,0l0.4-0.2c1.2-0.8,2.4-1.3,3.4-1.6c1.3-0.4,2.6-0.7,3.8-0.7c0.7,0,1,0.1,1,0.3
		c0,1.3-0.3,3.3-1.1,6.2s-1.3,4.8-1.7,5.8c-0.1,0.2-0.2,0.4-0.4,0.6c-0.1,0.1-0.3,0.2-0.4,0.2c-0.2,0-0.4-0.1-0.6-0.3
		c-0.1-0.2-0.2-0.6-0.3-1c-0.2-3.1-1-5.7-2.6-7.8c-1.8,1.7-4,4.9-6.7,9.7c0,0.1-0.1,0.2-0.2,0.4c0.3,0.4,0.6,0.8,0.8,1
		c0.2,0.3,0.4,0.6,0.6,0.8l1.4,2c1.7,2.3,3.1,4.6,4.3,6.6s2.4,4.7,3.9,7.9C367.4,45.2,368.1,47.1,368.6,48.5z"/>
	<path class="st0" d="M392.1,36.5c-0.7,0.4-1.1,0.8-1.4,1c-1.7,0.9-3.1,1.3-4,1.3c-1.2,0-2.1-0.2-2.8-0.8c-0.7-0.6-1-1.3-1-2.2
		c0-0.4,0.1-0.9,0.2-1.5c0.2-0.6,0.4-1,0.7-1.3c0.2-0.4,0.7-0.9,1.1-1.3c1.4-1.3,2.7-2.9,3.7-4.6c1-1.8,1.7-3.7,2.2-5.7
		c0.6-2,0.8-4.1,0.8-6.1c0-0.8,0-1.3,0-1.7h-9.3c0,1.1,0,2.8,0,4.8c0,0.4,0,1.1,0,1.9V23c0,3.3,0,5.9,0,7.9v8v1.8
		c0,2.9,0.1,5.4,0.2,7.1c0.1,1.8,0.6,3.2,1.3,4.1c0.3,0.4-0.3,0.8-2,1.1s-3.2,0.6-4.8,0.6h-0.9c-0.7,0-1-1.5-1-4.4
		c0-1.6,0-2.9,0.1-4.2v-1.5c0-2.7,0.1-6.1,0.1-10.4s0.1-7.9,0.1-11.2c0-2.5-0.1-4.5-0.4-6c-0.2-1.6-0.8-2.8-1.4-3.8
		c-0.3-0.4,0.4-0.8,2-1.1c1.7-0.3,3.2-0.6,4.8-0.4h17.4h0.3c0.8,0,1.2,0.2,1.2,0.7c0,4.1-0.7,7.5-2,10c-1.3,2.6-2.4,4.4-3.4,5.4
		s-1.6,1.7-1.7,1.8l-0.9,0.8c-0.8,0.7-1.3,1.3-1.6,2c-0.3,0.6-0.4,1.2-0.4,1.9c0,0.8,0.2,1.5,0.8,2c0.6,0.4,1.3,0.8,2.3,0.8
		C393,35.7,392.8,35.9,392.1,36.5z"/>
	<path class="st0" d="M431.6,50.2c0.6,0.7,0.8,1.1,0.8,1.2c0,0.3-0.3,0.6-1.1,0.8c-0.8,0.2-1.7,0.4-2.7,0.6
		c-1.3,0.2-2.3,0.2-2.9,0.2c-1.1,0-1.7-0.2-1.8-0.6c-0.1-0.3-0.3-1.6-0.8-3.8c-0.2-0.9-0.4-2-0.7-3.6c-0.3-1.6-0.6-2.5-0.7-2.8
		c-1.3,2.1-3.3,4-5.8,5.7c-2.4,1.7-4.8,3-7.1,3.9c-1.8,0.8-3.1,1.1-4.1,1.1c-0.4,0-0.7-0.6-0.9-1.7c-0.2-1.1-0.2-2.3-0.2-4
		c0-2.2,0.1-4.1,0.3-5.6c0.3-2.2,0.8-4.4,1.3-6.4c0.4-2,1.6-4.5,3.1-7.4c1.6-2.9,3.7-5.5,6.4-7.8c-0.7-1.6-1.1-2.8-1.4-3.9
		c-0.3-1-0.4-2-0.4-2.8s0.4-1.5,1.3-2.1c0.8-0.6,1.7-1.1,2.6-1.3c0.7-0.2,1.3-0.4,1.9-0.6c0.6-0.1,1-0.1,1.1,0s0.1,0.3,0,0.8
		c-0.1,0.4-0.1,0.8-0.1,1.1c0,1.8,1.2,5.6,3.8,11.3c1.3,3.2,2.8,7.3,4.1,12s2.1,8.1,2.4,10C430.6,47.7,431.2,49.5,431.6,50.2z
		 M415.9,44.2c1.4-1.7,2.7-3.5,3.6-5.1c0.9-1.8,1.2-3,1.1-3.8c-0.4-1.8-0.9-3.3-1.3-4.7c-0.4-1.3-1.1-3.1-1.9-5.1l-0.8-1.9
		c-0.1-0.3-0.2-0.7-0.3-0.8c-2.8,2.8-4.6,8-5.3,15.8l-0.1,1.2c-0.2,2.5-0.3,4.1-0.3,5.1c0,2.1,0.3,3.1,1,3.1c0.2,0,0.3,0,0.4-0.1
		C413.1,47.1,414.4,45.8,415.9,44.2z"/>
	<path class="st0" d="M481.9,50.5c0.6,0.7,0.8,1.1,0.8,1.2c0,0.3-0.3,0.6-1.2,0.8c-0.8,0.2-1.7,0.4-2.6,0.6
		c-1.4,0.2-2.4,0.2-2.9,0.2c-1.1,0-1.7-0.2-1.8-0.6c-0.2-0.6-0.4-1.7-0.7-3.1c-0.2-1.6-0.4-3.2-0.6-5.1c-0.7-8.3-1.8-15.1-3.4-20.5
		c-0.1-0.3-0.2-0.7-0.3-1.1c-0.9,0.7-1.9,1.9-3,3.8s-2,4.1-2.8,6.6s-1.2,4.9-1.3,7.4c0,0.3,0,0.9,0,1.7c0,1.9,0.2,3.8,0.6,5.5
		c0.3,1.8,0.8,3,1.4,3.9c0.3,0.4-0.3,0.8-2,1.1c-1.7,0.3-3.2,0.6-4.8,0.6h-0.9c-0.2-0.1-0.3-0.2-0.4-0.3c-0.1-0.1-0.2-0.2-0.3-0.3
		c0-0.1-0.1-0.8-0.2-2c-0.1-2.1-0.4-4.1-0.8-6.1c-0.7-3.7-1.7-7.4-2.9-11c-1.2-3.8-2.4-7-3.8-9.7l0,0c-1.2,2-2.1,4.4-2.7,7.1
		c-0.6,2.8-1,5.8-1.3,9c-0.1,1-0.1,1.8-0.1,2.2c0,1.9,0.2,3.8,0.6,5.6c0.3,1.8,0.9,3.1,1.4,4c0.3,0.4-0.3,0.8-2,1.1
		c-1.7,0.3-3.2,0.6-4.8,0.6h-0.9c-0.4,0-0.8-0.8-1-2.2c-0.2-1.5-0.3-3.1-0.3-5.1c0-1.5,0-2.3,0-2.9c0.2-3.7,1.1-7.6,2.6-11.8
		c1.4-4.2,3.9-7.7,7-10.6c-0.7-1.6-1.2-2.9-1.4-4c-0.2-1.1-0.4-2-0.4-2.9c0-0.8,0.4-1.5,1.3-2.1c0.8-0.6,1.7-1.1,2.6-1.3
		c0.7-0.3,1.3-0.4,2-0.7c0.6-0.1,1-0.1,1.1,0c0,0.1,0,0.3,0,0.8c0,0.4-0.1,0.9-0.1,1.3c0.1,1.7,1.3,5.4,3.8,10.9
		c1.1,2.7,2.2,6,3.4,10c0.8-2.5,2-4.9,3.8-7.4s3.8-4.4,6-5.7c-0.4-1.3-0.8-2.6-0.9-3.5c-0.2-0.9-0.2-1.8-0.2-2.6s0.4-1.5,1.3-2.1
		c0.8-0.6,1.7-1.1,2.6-1.3c0.7-0.3,1.3-0.4,2-0.7c0.6-0.1,1-0.1,1.1,0c0,0.1,0,0.3,0,0.8c0,0.4-0.1,0.9,0,1.5c0,0.4,0.3,1.8,1,4
		c1,3.5,1.7,5.8,2,7.1c0.7,2.6,1.3,5.2,1.7,8c0.4,2.8,0.9,6.5,1.4,10.8c0.2,1.8,0.3,2.8,0.3,3C480.9,48.1,481.4,49.8,481.9,50.5z"/>
</g>
<g>
	<path class="st0" d="M53.8,79c0,0.2,0,0.6,0,1c-0.1,1.8-0.7,3.3-1.4,4.5c-0.9,1.3-2.3,2.3-4.1,3.2c-0.3,0.2-0.9,0.4-1.4,0.7
		c-0.6,0.2-0.9,0.2-0.9,0.1c-0.1-0.6-0.3-1-0.6-1.5c-0.2-0.4-0.6-1-0.9-1.7c-0.6-1.1-1-1.9-1.3-2.6c-0.4-1.1-0.7-2.2-0.7-3.6
		c0-0.6,0-1,0.1-1.5c0.2-2,0.8-3.6,1.7-4.7c0.7-0.9,1.4-1.6,2.4-2.1c1-0.6,2.1-1,3.2-1.3c0.1,0,0.2,0,0.3,0c0.1,0,0.2,0,0.2,0
		c0.1,0.4,0.3,1,0.6,1.5c0.2,0.4,0.6,1,0.9,1.8c0.1,0.1,0.2,0.4,0.4,0.9c0.2,0.4,0.4,0.9,0.7,1.3C53.5,76.3,53.8,77.6,53.8,79z
		 M50.9,80.3c0-1.7-0.3-3.2-1.1-4.8c-0.2-0.4-0.6-1-0.8-1.3c-0.1-0.1-0.2-0.3-0.4-0.8c-0.2-0.4-0.4-0.8-0.6-1.1
		c-0.2-0.3-0.3-0.7-0.3-1c-0.2,0.2-0.3,0.3-0.6,0.6c-0.4,0.6-0.8,1.2-1,1.9c-0.6,1.3-0.8,2.8-0.8,4.4s0.3,3,1,4.5
		c0.1,0.2,0.4,0.8,0.9,1.6c0.2,0.4,0.4,0.9,0.8,1.3c0.2,0.4,0.4,0.9,0.6,1.3c0.7-0.7,1.2-1.6,1.8-2.7C50.7,82.9,50.9,81.6,50.9,80.3
		z"/>
	<path class="st0" d="M70.6,87.3L70.6,87.3c0,0.6-0.2,1.6-0.6,2.9c-0.3,1.3-0.6,2.2-0.8,2.7c-0.1,0.2-0.2,0.3-0.3,0.3
		c-0.1,0-0.2,0-0.2-0.1c-0.1-0.1-0.1-0.2-0.1-0.4c-0.1-1.6-0.6-3-1.3-4.2h-8.1c-0.3,0.4-0.7,1.1-0.9,1.8c-0.2,0.7-0.4,1.6-0.4,2.5
		c0,0.3-0.1,0.6-0.3,0.6c-0.1,0-0.3-0.1-0.3-0.3c-0.2-0.4-0.4-1.2-0.8-2.2c-0.3-1-0.4-1.8-0.4-2.3c0,0,0,0,0-0.1
		c0.1-0.1,0.3-0.3,0.6-0.4c0.2-0.1,0.7-0.3,1.1-0.4c0-0.1,0-0.4,0-0.8c0-0.9,0-1.7,0.1-2.5c0.1-0.9,0.3-1.8,0.6-2.8
		c0.2-0.9,0.7-2,1.3-3.2c0.7-1.2,1.7-2.5,2.9-3.5c-0.3-0.8-0.7-1.5-0.8-2c-0.3-0.6-0.3-1-0.3-1.3s0.2-0.7,0.6-1
		c0.3-0.2,0.8-0.4,1.1-0.6c0.6-0.2,0.9-0.3,1.1-0.3c0.1,0,0.2,0,0.2,0.1c0,0,0,0.1,0,0.3c0,0.2,0,0.3,0,0.7c0,0.7,0.6,2.3,1.7,4.8
		c0.6,1.5,1.2,3.1,1.8,5.2c0.6,2.1,0.9,3.6,1.1,4.4c0.1,0.9,0.3,1.6,0.6,2h0.8C70.5,86.9,70.6,87,70.6,87.3z M60.4,83.6
		c0,1.3,0.1,2.5,0.4,3.2h5c-0.1-0.9-0.2-1.7-0.3-2.3c-0.3-1.7-0.8-3.3-1.2-4.9c-0.4-1.6-1-3-1.4-4c-1.2,1.3-2.1,3.7-2.3,6.9
		C60.5,83.1,60.4,83.4,60.4,83.6z"/>
	<path class="st0" d="M82.9,88.3c-0.7,0.1-1.4,0.2-2.1,0.2h-0.4c-0.3,0-0.4-0.7-0.4-2c0-0.3,0-1.2,0.1-2.5c0.1-2,0.1-3.6,0.1-4.5H76
		c0,1.1,0,2.3,0,3.7c0,1.2,0,2.1,0.1,2.9s0.2,1.3,0.6,1.7c0.1,0.2-0.2,0.3-0.9,0.4c-0.7,0.1-1.4,0.2-2.1,0.2h-0.4
		c-0.3,0-0.4-0.7-0.4-2c0-0.3,0-1.1,0.1-2.3V83c0-0.6,0.1-1.9,0.1-4C73,77,73,75.5,73,74.7c0-1.1,0-1.9-0.1-2.3s-0.2-0.9-0.6-1.3
		c-0.1-0.1,0-0.3,0.4-0.6c0.3-0.2,0.9-0.4,1.4-0.7c0.6-0.2,1-0.2,1.3-0.2s0.4,0.7,0.4,2.1c0,0.3,0,1.1-0.1,2.3v4.2h4.2l0.1-3.9
		c0-1,0-1.7-0.1-2c-0.1-0.4-0.2-0.8-0.6-1.2c-0.1-0.1,0-0.3,0.4-0.6c0.3-0.2,0.9-0.4,1.4-0.7c0.6-0.2,1-0.2,1.3-0.2s0.4,0.8,0.4,2.2
		c0,0.6,0,1.3-0.1,2.2l0.3,9.1c0,1.2,0,2.3,0.1,3.1c0.1,0.8,0.2,1.5,0.6,1.8C83.9,88,83.6,88.2,82.9,88.3z"/>
	<path class="st0" d="M97.8,87.1c0.2,0.3,0.3,0.4,0.3,0.6S98,87.9,97.5,88c-0.3,0.1-0.8,0.2-1.1,0.2c-0.6,0.1-1,0.1-1.2,0.1
		c-0.4,0-0.8-0.1-0.8-0.2s-0.1-0.7-0.3-1.7c-0.1-0.3-0.2-0.9-0.3-1.6c-0.1-0.7-0.2-1.1-0.2-1.2c-0.6,0.9-1.4,1.8-2.6,2.5
		c-1.1,0.8-2.1,1.3-3.1,1.7c-0.8,0.3-1.3,0.4-1.8,0.4c-0.2,0-0.3-0.2-0.3-0.8c-0.1-0.4-0.1-1-0.1-1.8c0-1,0-1.8,0.1-2.5
		c0.1-1,0.3-1.9,0.6-2.8c0.2-0.9,0.7-1.9,1.3-3.2c0.7-1.2,1.7-2.5,2.8-3.5c-0.3-0.7-0.4-1.2-0.7-1.7c-0.1-0.4-0.2-0.9-0.2-1.2
		c0-0.3,0.2-0.7,0.6-0.9c0.3-0.2,0.8-0.4,1.1-0.6c0.3-0.1,0.6-0.2,0.9-0.2c0.2-0.1,0.4-0.1,0.4,0c0,0,0,0.1,0,0.3c0,0.2,0,0.3,0,0.4
		c0,0.8,0.6,2.5,1.7,4.9c0.6,1.5,1.2,3.1,1.8,5.2c0.6,2.1,1,3.6,1.1,4.4C97.3,86,97.5,86.8,97.8,87.1z M90.9,84.4
		c0.7-0.8,1.1-1.5,1.6-2.2c0.4-0.8,0.6-1.3,0.4-1.7c-0.2-0.8-0.3-1.5-0.6-2.1c-0.2-0.7-0.4-1.3-0.9-2.2l-0.3-0.9
		C91,75.2,91,75.1,91,75c-1.2,1.2-2,3.6-2.3,6.9v0.6c-0.1,1.1-0.1,1.8-0.1,2.2c0,0.9,0.1,1.3,0.4,1.3c0.1,0,0.1,0,0.2-0.1
		C89.7,85.8,90.2,85.2,90.9,84.4z"/>
	<path class="st0" d="M123.7,88.2c-0.7,0.1-1.4,0.2-2.1,0.2h-0.4c-0.3,0-0.4-0.7-0.4-2c0-0.3,0-1.1,0.1-2.3l0.2-6.5
		c-1.2,1-2.3,2-3.2,3.2s-1.3,2.2-1.3,3.1v0.8c0,0.7,0.1,1.3,0.2,1.8s0.2,0.9,0.4,1.1c0.1,0.2-0.2,0.3-0.9,0.4s-1.4,0.2-2.1,0.2h-0.4
		c-0.3,0-0.4-0.7-0.4-1.9c0-0.7,0-1.2,0.1-1.8V84c0-0.3,0-1.6,0.1-3.8c0.1-2.8,0.1-4.8,0.1-6c0-1,0-1.7-0.1-2
		c-0.1-0.4-0.2-0.8-0.6-1.2c-0.1-0.1,0-0.3,0.4-0.6c0.3-0.2,0.9-0.4,1.4-0.7c0.5-0.3,1-0.2,1.3-0.2s0.4,0.8,0.4,2.2
		c0,0.6,0,1.3-0.1,2.2c0,0,0,0.7,0,2.2c0,0.7,0,1.8,0,3.3c0.6-0.7,1.2-1.2,2-1.7c0.8-0.4,1.6-1,2.6-1.5v-1.7c0-1.1,0-1.9-0.1-2.3
		s-0.2-0.9-0.6-1.3c-0.1-0.1,0-0.3,0.4-0.6c0.3-0.2,0.9-0.4,1.4-0.7c0.6-0.2,1-0.2,1.3-0.2s0.4,0.7,0.4,2.1c0,0.3,0,1.1-0.1,2.3
		c0,1.1,0,2.7-0.1,4.6c0,1.9,0,3.5,0,4.7s0,2.1,0.1,2.9s0.2,1.3,0.6,1.7C124.7,88,124.4,88.1,123.7,88.2z"/>
	<path class="st0" d="M136.9,82.9c0,0.4-0.1,1-0.3,1.5c-0.4,1.1-1.2,1.9-2.3,2.6s-2.3,1.2-3.8,1.7c-0.2,0-0.3,0.1-0.4,0.1
		c-0.1,0-0.2,0-0.3-0.1c-0.8-0.4-1.6-1.1-2.2-1.9c-0.7-0.8-1.1-1.6-1.1-2.3c0-0.4,0.1-0.8,0.3-1.1c0.1-0.2,0.3-0.3,0.7-0.6
		c0.2-0.1,0.7-0.3,1.1-0.4c0,0,0.2-0.1,0.7-0.2c0.4-0.1,0.6-0.1,0.4,0.1c-0.2,0.3-0.3,0.7-0.3,1c0,0.4,0.1,1.1,0.4,1.8
		c0.2,0.4,0.6,0.9,1,1.2c0.3,0.3,0.8,0.7,1.1,0.8c0.4-0.2,1-0.6,1.4-1s0.7-1,0.7-1.6c0-0.9-0.2-1.8-0.8-2.6
		c-0.6-0.8-1.2-1.7-2.2-2.7c-0.2-0.2-0.3-0.6-0.3-1c0-0.1,0-0.3,0-0.7c0.2-1.2,0.6-2.5,1.2-3.7c0.7-1.2,1.4-2.1,2.2-2.8H130
		c-0.7,1.2-1.1,2.6-1.1,4c0,0.2-0.1,0.3-0.1,0.4c-0.1,0.1-0.1,0.1-0.2,0.1c-0.1,0-0.3-0.1-0.3-0.3c0-0.1-0.2-0.6-0.7-1.6
		c-0.4-1-0.6-1.9-0.6-2.7c0,0,0-0.1,0.1-0.1c0.1-0.1,0.2-0.2,0.4-0.3c0.2-0.1,0.3-0.2,0.4-0.3c0.3-0.2,0.8-0.3,1-0.4
		c0.3-0.1,0.6-0.1,0.9-0.1h6.8c0.2,0,0.3,0,0.3,0.1s-0.2,0.3-0.6,0.7v0.1c-0.7,0.8-1.2,1.7-1.7,2.5s-0.7,1.7-0.9,2.7
		c0,0.1,0,0.3-0.1,0.6c-0.1,0.2-0.1,0.4-0.1,0.7c0,0.3,0.1,0.6,0.2,0.8c0,0,0.3,0.3,0.9,1c0.7,0.7,1,1.1,1.3,1.5
		C136.6,80.9,136.9,82,136.9,82.9z"/>
	<path class="st0" d="M157.8,71.7c0.9,0.9,1.6,1.9,2,3s0.7,2,0.7,2.6c0,0.4-0.1,0.7-0.3,1c-0.2,0.2-0.4,0.6-0.9,0.8
		c-0.8,0.4-1.3,1.2-1.9,2.1c-0.6,0.9-0.9,1.9-1.2,2.8s-0.4,1.8-0.4,2.6c0,0.4,0.1,0.8,0.2,1c0.1,0.1,0,0.2-0.4,0.4s-1,0.2-1.6,0.3
		s-1.1,0.1-1.4,0.1c-0.1,0-0.2-0.2-0.2-0.6s0.1-1.2,0.3-2.2s0.6-1.8,0.8-2.5c0.3-0.9,0.9-1.6,1.4-2.2c0.6-0.7,1.4-1.3,2.7-2.2
		c0.1-0.1,0.2-0.4,0.2-0.9c0-0.7-0.1-1.6-0.3-2.6s-0.6-1.9-1-2.8c-0.4-0.8-0.9-1.2-1.3-1.3c0,0-0.1,0.1-0.2,0.4
		c-0.1,0.3-0.3,0.9-0.4,1.5c-0.1,0.6-0.2,1.3-0.3,2.1c0,0.2-0.1,0.3-0.1,0.4c-0.1,0.1-0.1,0.1-0.2,0.1c-0.1,0-0.3-0.1-0.3-0.3
		c-0.2-0.4-0.4-1.3-0.8-2.6c-0.3-1.2-0.4-2.2-0.4-2.8c0-0.1,0.1-0.2,0.3-0.3c0.2-0.1,0.4-0.1,0.8-0.1c0.7,0,1.4,0.1,2.2,0.4
		C156,70.3,156.9,70.8,157.8,71.7z M163.6,86c0.1,0.8,0.2,1.3,0.6,1.7c0.1,0.2-0.1,0.3-0.9,0.4c-0.7,0.1-1.4,0.2-2.1,0.2h-0.4
		c-0.3,0-0.4-0.7-0.4-1.9c0-0.7,0-1.2,0.1-1.8V84l0.1-2.7c0.2-3.8,0.3-6,0.3-6.8c0-1.1-0.1-1.9-0.2-2.7c-0.1-0.7-0.3-1.2-0.7-1.7
		c-0.1-0.2,0.1-0.3,0.9-0.4c0.7-0.1,1.4-0.2,2.1-0.2h0.4c0.3,0,0.4,0.7,0.4,2c0,0.4,0,0.9,0,1.5v0.8l-0.1,2.8
		c-0.1,3.3-0.2,5.5-0.2,6.6C163.5,84.3,163.6,85.2,163.6,86z M169.8,81.3c0.6,1,0.9,1.8,1.1,2.5c0.2,0.7,0.6,1.5,1,2.6
		c0.2,0.7,0.4,1.1,0.6,1.2c0.1,0.1,0.2,0.2,0.2,0.2c0,0.2-0.4,0.3-1.2,0.4s-1.4,0.2-1.9,0.2c-0.2,0-0.3,0-0.3-0.1
		c-0.1-0.1-0.1-0.3-0.2-0.7c-0.1-0.3-0.2-0.8-0.3-1.2c-0.3-1-0.8-2.1-1.4-3.3c-0.6-1.2-1.2-2.3-2-3.2c-0.1-0.1-0.2-0.2-0.4-0.4
		s-0.3-0.4-0.4-0.7c-0.1-0.2-0.1-0.4-0.1-0.8c0-0.6,0.2-1.6,0.8-2.8c0.4-1.1,1.1-2.1,2-2.9s1.8-1.5,2.7-1.9c0.4-0.2,1-0.4,1.4-0.6
		c0.4-0.1,0.9-0.2,1.2-0.2s0.6,0.1,0.6,0.2c0,0.6-0.1,1.5-0.4,2.8c-0.3,1.3-0.6,2.1-0.8,2.6c-0.1,0.2-0.2,0.3-0.3,0.3
		s-0.2,0-0.2-0.1c-0.1-0.1-0.1-0.2-0.1-0.4c-0.1-0.8-0.2-1.5-0.3-2c-0.1-0.6-0.3-0.9-0.4-1.2c-0.1-0.2-0.2-0.3-0.2-0.3
		c-0.3,0.2-0.8,0.6-1.2,1.1c-0.4,0.6-0.8,1.2-1,1.9c-0.2,0.6-0.3,1-0.4,1.3c-0.1,0.3-0.1,0.7-0.1,0.9c0,0.6,0.2,1.2,0.7,1.8
		C168.7,79.3,169.2,80.3,169.8,81.3z"/>
	<path class="st0" d="M185.6,82.3c0,0.4-0.1,0.8-0.2,1.2c-0.3,1-0.8,1.9-1.6,2.5c-0.8,0.7-1.7,1.2-2.6,1.7c-1,0.4-1.9,0.7-2.8,0.8
		c-0.1,0-0.1,0-0.1,0c-0.1,0-0.1,0-0.1,0c-0.1-0.4-0.3-1-0.6-1.5s-0.6-1.1-0.9-1.7c-0.6-1-1-1.8-1.1-2.3c-0.6-1.6-0.8-3-0.8-4.5
		c0-0.7,0-1.3,0.1-1.9c0.2-0.9,0.4-1.8,0.9-2.6c0.4-0.8,1-1.6,1.7-2.1c0.9-0.8,2-1.3,3.1-1.8c1.1-0.4,2.3-0.6,3.4-0.6
		c0.1,0,0.1,0.1,0.1,0.2v0.1c0,0.6-0.2,1.5-0.6,2.7s-0.6,2-0.8,2.5c-0.1,0.2-0.2,0.3-0.3,0.3s-0.2,0-0.2-0.1
		c-0.1-0.1-0.1-0.2-0.1-0.4c-0.1-1.5-0.4-2.8-1.1-3.9c-0.4,0.1-0.8,0.3-1.2,0.7c-0.4,0.3-0.8,0.7-1.1,1.2c-0.3,0.7-0.7,1.3-0.8,2.1
		c-0.1,0.8-0.2,1.6-0.2,2.3c0,0.2,0,0.4,0,0.6l0.1-0.1c0.6-0.3,1.1-0.6,1.9-0.7c0.7-0.1,1.4-0.2,2.1-0.2c0.6,0,1.1,0,1.6,0.1
		s0.7,0.2,0.7,0.3c0,1-0.6,1.9-1.6,2.9c-0.2,0.2-0.3,0.3-0.4,0.3s-0.2-0.2-0.3-0.6c-0.1-1.1-0.9-1.7-2.2-1.7c-0.6,0-1.1,0.1-1.8,0.2
		c0.1,1.5,0.6,2.9,1.2,4.4l0.8,1.3c0.7,1.1,1.1,2,1.3,2.8c0.2-0.1,0.4-0.3,0.8-0.7c0.4-0.4,0.8-1.2,0.9-2.1c0-0.1,0-0.2,0-0.4
		c0-0.8-0.2-1.1-0.7-1.2c-0.1,0-0.1-0.1,0.2-0.3s0.6-0.3,0.7-0.4c0.1,0,0.2-0.1,0.6-0.2c0.2-0.1,0.6-0.2,0.8-0.3
		c0.2-0.1,0.4-0.1,0.6-0.1C185.3,81.1,185.6,81.5,185.6,82.3z"/>
	<path class="st0" d="M207.2,87.3c0.2,0.3,0.3,0.4,0.3,0.6c0,0.1-0.1,0.2-0.6,0.3c-0.3,0.1-0.8,0.2-1.1,0.2c-0.7,0.1-1,0.1-1.3,0.1
		c-0.4,0-0.8-0.1-0.8-0.2c-0.1-0.2-0.2-0.7-0.3-1.3c-0.1-0.7-0.2-1.5-0.2-2.2c-0.3-3.6-0.8-6.6-1.6-8.9c-0.1-0.1-0.1-0.3-0.1-0.4
		c-0.3,0.3-0.8,0.8-1.3,1.7c-0.4,0.8-0.9,1.8-1.2,2.9s-0.6,2.1-0.6,3.2c0,0.1,0,0.4,0,0.8c0,0.9,0.1,1.7,0.2,2.5
		c0.1,0.8,0.3,1.3,0.7,1.7c0.1,0.2-0.2,0.3-0.9,0.4s-1.4,0.2-2.1,0.2h-0.4c-0.1,0-0.1-0.1-0.2-0.1c-0.1,0-0.1-0.1-0.1-0.1
		c0-0.1,0-0.3-0.1-0.9c-0.1-0.9-0.2-1.8-0.3-2.7c-0.3-1.6-0.8-3.2-1.2-4.8c-0.6-1.7-1.1-3-1.7-4.2l0,0c-0.6,0.9-0.9,1.9-1.2,3.1
		c-0.2,1.2-0.4,2.6-0.6,4c0,0.4,0,0.8,0,1c0,0.9,0.1,1.7,0.2,2.5c0.1,0.8,0.3,1.3,0.7,1.8c0.1,0.2-0.2,0.3-0.9,0.4s-1.4,0.2-2.1,0.2
		H188c-0.2,0-0.3-0.3-0.4-1c-0.1-0.7-0.1-1.3-0.1-2.2c0-0.7,0-1,0-1.2c0.1-1.6,0.4-3.3,1.1-5.1c0.7-1.9,1.7-3.3,3.1-4.6
		c-0.3-0.7-0.6-1.2-0.7-1.8c-0.1-0.6-0.2-0.9-0.2-1.2c0-0.3,0.2-0.7,0.6-0.9c0.3-0.2,0.8-0.4,1.1-0.6c0.3-0.1,0.6-0.2,0.9-0.3
		c0.2-0.1,0.4,0,0.4,0s0,0.1,0,0.3c0,0.2,0,0.3,0,0.6c0,0.8,0.6,2.3,1.7,4.8c0.4,1.2,1,2.7,1.4,4.4c0.3-1.1,0.9-2.1,1.7-3.2
		c0.8-1,1.7-1.9,2.7-2.5c-0.2-0.6-0.3-1.1-0.4-1.6c-0.1-0.4-0.1-0.8-0.1-1.1c0-0.3,0.2-0.7,0.6-0.9c0.3-0.2,0.8-0.4,1.1-0.6
		c0.3-0.1,0.6-0.2,0.9-0.3c0.2-0.1,0.4,0,0.4,0s0,0.1,0,0.3c0,0.2,0,0.3,0,0.7c0,0.2,0.1,0.8,0.4,1.8c0.4,1.5,0.8,2.6,0.9,3.1
		c0.3,1.1,0.6,2.2,0.8,3.5c0.2,1.2,0.4,2.8,0.7,4.7c0.1,0.8,0.1,1.2,0.1,1.3C206.8,86.2,207,87,207.2,87.3z"/>
	<path class="st0" d="M215.8,78.7c0.2,0.1,0.4,0.3,0.6,0.4c0.1,0.2,0.2,0.3,0.2,0.6c0,0.1,0,0.2,0,0.3c0,0.4-0.3,1-1,1.5
		c-0.2,0.2-0.6,0.3-0.9,0.4c-0.3,0.1-0.7,0.2-1.2,0.3c-0.1,0-0.3,0.1-0.6,0.1c-0.1,0-0.2,0-0.2-0.1s0-0.1,0.1-0.2
		c0.3-0.3,0.6-0.7,0.6-1.1c0-0.3-0.1-0.6-0.2-0.8c-0.2-0.3-0.4-0.6-1-0.9l-0.4-0.3c-0.4-0.3-0.9-0.8-1.2-1.3
		c-0.3-0.6-0.6-1.1-0.7-1.7c-0.1-0.6-0.2-1.2-0.2-1.9c0-0.4,0-0.8,0.1-1.1c0-0.1,0-0.2,0-0.4c0-0.3,0-0.6-0.1-0.8
		c-0.1-0.2-0.2-0.6-0.3-0.8c-0.1-0.1,0-0.3,0.4-0.6c0.3-0.2,0.9-0.4,1.4-0.7c0.6-0.2,1-0.2,1.3-0.2c0.1,0,0.2,0.2,0.2,0.4
		c0,0.2,0.1,0.7,0.1,1s0,0.7,0,0.8c-0.1,0.4-0.1,0.9-0.1,1.6c0,0.8,0.1,1.5,0.2,2c0.1,0.7,0.4,1.1,0.8,1.6s0.8,0.9,1.4,1.3
		C215.4,78.4,215.5,78.6,215.8,78.7z M219.5,88.3c-0.7,0.1-1.4,0.2-2.1,0.2H217c-0.3,0-0.4-0.7-0.4-2c0-0.3,0-1.1,0.1-2.3
		c0.2-5,0.2-8.3,0.2-9.5c0-1,0-1.8-0.1-2.2s-0.3-1-0.7-1.5c-0.1-0.1,0.1-0.3,0.4-0.6c0.4-0.2,0.9-0.4,1.4-0.7c0.5-0.3,1-0.2,1.4-0.2
		c0.3,0,0.4,0.7,0.4,2.1c0,0.4,0,0.9,0,1.6V74c0,1.1,0,2.7-0.1,4.7c0,1.9,0,3.5,0,4.7c0,1.1,0,2.1,0.1,2.9s0.2,1.3,0.6,1.7
		C220.5,88,220.2,88.1,219.5,88.3z"/>
	<path class="st0" d="M235.6,69.6c0.7,0,1,0.1,1,0.2c0,0.6-0.1,1.5-0.4,2.7c-0.3,1.2-0.6,2.1-0.8,2.6c0,0.1-0.1,0.2-0.2,0.2
		c-0.1,0.1-0.1,0.1-0.2,0.1s-0.2,0-0.2-0.1c-0.1-0.1-0.1-0.2-0.1-0.4c-0.1-1.3-0.4-2.6-1-3.7c-0.6,0.6-1.1,1.6-1.6,2.8
		c-0.3,1-0.7,2.3-0.9,4s-0.4,3.3-0.6,4.8c0,0.7-0.1,1.2-0.1,1.9c0,1.5,0.2,2.5,0.6,3c0.1,0.2-0.2,0.3-0.9,0.4s-1.4,0.2-2.1,0.2h-0.4
		c-0.2,0-0.3-0.6-0.3-1.5c0-0.7,0.1-1.6,0.2-2.9c0.1-1.2,0.2-2.5,0.4-3.7c-0.2,0.1-0.4,0.2-0.8,0.2c-0.2,0-0.4,0.1-0.7,0.1
		c-0.8,0-1.3-0.3-1.8-0.9c-0.2-0.4-0.4-0.9-0.7-1.3c-0.2-0.4-0.3-1.1-0.4-1.8c-0.1-0.3-0.1-0.6-0.1-0.8c0-0.2,0-0.4-0.1-0.6
		c-0.2-1.2-0.3-1.9-0.3-2.2c0-0.1,0-0.3-0.1-0.6c-0.1-0.3-0.1-0.6-0.3-0.9c-0.1-0.2-0.3-0.4-0.4-0.4s-0.1-0.1,0-0.2s0.3-0.2,0.4-0.3
		c0.2-0.1,0.3-0.1,0.3-0.2c0.1,0,0.3-0.1,0.7-0.3c0.3-0.2,0.7-0.3,1-0.3c0,0,0.1,0,0.2,0c0.3,0.1,0.6,0.3,0.7,0.6
		c0.1,0.3,0.2,0.7,0.3,1.2c0.1,0.4,0.2,1.2,0.4,2.3c0.1,0.4,0.1,0.9,0.1,1.1c0.2,1,0.3,1.9,0.6,2.7c0.3,0.8,0.6,1.3,1.1,1.7
		c1-4.9,2.4-7.9,4.7-9h0.1c0.2-0.1,0.4-0.2,0.8-0.3c0.1,0,0.3-0.1,0.6-0.1l0,0C234.7,69.7,235.2,69.6,235.6,69.6z"/>
	<path class="st0" d="M244.4,71.7c0.9,0.9,1.6,1.9,2,3s0.7,2,0.7,2.6c0,0.4-0.1,0.7-0.3,1c-0.2,0.2-0.4,0.6-0.9,0.8
		c-0.8,0.4-1.3,1.2-1.9,2.1s-0.9,1.9-1.2,2.8c-0.3,0.9-0.4,1.8-0.4,2.6c0,0.4,0.1,0.8,0.2,1c0.1,0.1,0,0.2-0.4,0.4s-1,0.2-1.6,0.3
		c-0.6,0.1-1.1,0.1-1.4,0.1c-0.1,0-0.2-0.2-0.2-0.6s0.1-1.2,0.3-2.2s0.6-1.8,0.8-2.5c0.3-0.9,0.9-1.6,1.4-2.2
		c0.6-0.7,1.4-1.3,2.7-2.2c0.1-0.1,0.2-0.4,0.2-0.9c0-0.7-0.1-1.6-0.3-2.6s-0.6-1.9-1-2.8c-0.4-0.8-0.9-1.2-1.3-1.3
		c0,0-0.1,0.1-0.2,0.4s-0.3,0.9-0.4,1.5s-0.2,1.3-0.3,2.1c0,0.2-0.1,0.3-0.1,0.4c-0.1,0.1-0.1,0.1-0.2,0.1s-0.3-0.1-0.3-0.3
		c-0.2-0.4-0.4-1.3-0.8-2.6c-0.3-1.2-0.4-2.2-0.4-2.8c0-0.1,0.1-0.2,0.3-0.3c0.2-0.1,0.4-0.1,0.8-0.1c0.7,0,1.4,0.1,2.2,0.4
		C242.6,70.3,243.5,70.8,244.4,71.7z M250.2,86c0.1,0.8,0.2,1.3,0.6,1.7c0.1,0.2-0.1,0.3-0.9,0.4c-0.7,0.1-1.4,0.2-2.1,0.2h-0.4
		c-0.3,0-0.4-0.7-0.4-1.9c0-0.7,0-1.2,0.1-1.8V84l0.1-2.7c0.2-3.8,0.3-6,0.3-6.8c0-1.1-0.1-1.9-0.2-2.7c-0.1-0.7-0.3-1.2-0.7-1.7
		c-0.1-0.2,0.1-0.3,0.9-0.4c0.7-0.1,1.4-0.2,2.1-0.2h0.4c0.3,0,0.4,0.7,0.4,2c0,0.4,0,0.9,0,1.5v0.8l-0.1,2.8
		c-0.1,3.3-0.2,5.5-0.2,6.6C250.1,84.3,250.2,85.2,250.2,86z M256.4,81.3c0.6,1,0.9,1.8,1.1,2.5s0.6,1.5,1,2.6
		c0.2,0.7,0.4,1.1,0.6,1.2s0.2,0.2,0.2,0.2c0,0.2-0.4,0.3-1.2,0.4c-0.8,0.1-1.4,0.2-1.9,0.2c-0.2,0-0.3,0-0.3-0.1
		c-0.1-0.1-0.1-0.3-0.2-0.7c-0.1-0.3-0.2-0.8-0.3-1.2c-0.3-1-0.8-2.1-1.4-3.3c-0.6-1.2-1.2-2.3-2-3.2c-0.1-0.1-0.2-0.2-0.4-0.4
		c-0.2-0.2-0.3-0.4-0.4-0.7c-0.1-0.2-0.1-0.4-0.1-0.8c0-0.6,0.2-1.6,0.8-2.8c0.4-1.1,1.1-2.1,2-2.9s1.8-1.5,2.7-1.9
		c0.4-0.2,1-0.4,1.4-0.6c0.4-0.1,0.9-0.2,1.2-0.2c0.3,0,0.6,0.1,0.6,0.2c0,0.6-0.1,1.5-0.4,2.8s-0.6,2.1-0.8,2.6
		c-0.1,0.2-0.2,0.3-0.3,0.3s-0.2,0-0.2-0.1c-0.1-0.1-0.1-0.2-0.1-0.4c-0.1-0.8-0.2-1.5-0.3-2c-0.1-0.6-0.3-0.9-0.4-1.2
		c-0.1-0.2-0.2-0.3-0.2-0.3c-0.3,0.2-0.8,0.6-1.2,1.1s-0.8,1.2-1,1.9c-0.2,0.6-0.3,1-0.4,1.3s-0.1,0.7-0.1,0.9
		c0,0.6,0.2,1.2,0.7,1.8C255.3,79.3,255.8,80.3,256.4,81.3z"/>
	<path class="st0" d="M272,88.2c-0.7,0.1-1.4,0.2-2.1,0.2h-0.4c-0.3,0-0.4-0.7-0.4-2c0-0.3,0-1.1,0.1-2.3l0.2-6.5
		c-1.2,1-2.3,2-3.2,3.2c-0.9,1.2-1.3,2.2-1.3,3.1v0.8c0,0.7,0.1,1.3,0.2,1.8c0.1,0.4,0.2,0.9,0.4,1.1c0.1,0.2-0.2,0.3-0.9,0.4
		c-0.7,0.1-1.4,0.2-2.1,0.2H262c-0.3,0-0.4-0.7-0.4-1.9c0-0.7,0-1.2,0.1-1.8V84c0-0.3,0-1.6,0.1-3.8c0.1-2.8,0.1-4.8,0.1-6
		c0-1,0-1.7-0.1-2c-0.1-0.4-0.2-0.8-0.6-1.2c-0.1-0.1,0-0.3,0.4-0.6c0.3-0.2,0.9-0.4,1.4-0.7c0.5-0.3,1-0.2,1.3-0.2s0.4,0.8,0.4,2.2
		c0,0.6,0,1.3-0.1,2.2c0,0,0,0.7,0,2.2c0,0.7,0,1.8,0,3.3c0.6-0.7,1.2-1.2,2-1.7c0.8-0.4,1.6-1,2.6-1.5v-1.7c0-1.1,0-1.9-0.1-2.3
		s-0.2-0.9-0.6-1.3c-0.1-0.1,0-0.3,0.4-0.6c0.3-0.2,0.9-0.4,1.4-0.7c0.6-0.2,1-0.2,1.3-0.2s0.4,0.7,0.4,2.1c0,0.3,0,1.1-0.1,2.3
		c0,1.1,0,2.7-0.1,4.6c0,1.9,0,3.5,0,4.7s0,2.1,0.1,2.9s0.2,1.3,0.6,1.7C273,88,272.7,88.1,272,88.2z"/>
	<path class="st0" d="M285.1,88.3c-0.7,0.1-1.4,0.2-2.1,0.2h-0.4c-0.3,0-0.4-0.7-0.4-2c0-0.3,0-1.2,0.1-2.5c0.1-2,0.1-3.6,0.1-4.5
		h-4.2c0,1.1,0,2.3,0,3.7c0,1.2,0,2.1,0.1,2.9s0.2,1.3,0.6,1.7c0.1,0.2-0.2,0.3-0.9,0.4c-0.7,0.1-1.4,0.2-2.1,0.2h-0.4
		c-0.3,0-0.4-0.7-0.4-2c0-0.3,0-1.1,0.1-2.3V83c0-0.6,0.1-1.9,0.1-4c0.1-2.1,0.1-3.6,0.1-4.4c0-1.1,0-1.9-0.1-2.3s-0.2-0.9-0.6-1.3
		c-0.1-0.1,0-0.3,0.4-0.6c0.3-0.2,0.9-0.4,1.4-0.7c0.6-0.2,1-0.2,1.3-0.2s0.4,0.7,0.4,2.1c0,0.3,0,1.1-0.1,2.3v4.2h4.2l0.1-3.9
		c0-1,0-1.7-0.1-2c-0.1-0.4-0.2-0.8-0.6-1.2c-0.1-0.1,0-0.3,0.4-0.6c0.3-0.2,0.9-0.4,1.4-0.7c0.6-0.2,1-0.2,1.3-0.2s0.4,0.8,0.4,2.2
		c0,0.6,0,1.3-0.1,2.2l-0.1,8.9c0,1.2,0,2.3,0.1,3.1c0.1,0.8,0.2,1.5,0.6,1.8C286.1,88,285.9,88.2,285.1,88.3z"/>
	<path class="st0" d="M311.9,84.2c0.3,1,0.4,1.8,0.4,2.3c0,0.4-0.1,0.8-0.3,0.9c-1,0.6-2,0.9-3,0.9h-6.4c-0.1,0-0.2,0-0.4,0
		c-0.1,0-0.2,0-0.3,0c-0.3,0-0.4-0.7-0.4-2c0-0.3,0-1.1,0.1-2.3c0.2-5,0.2-8.3,0.2-9.5c0-1.1,0-2-0.1-2.7s-0.3-1.2-0.7-1.7
		c-0.1-0.2,0.1-0.3,0.9-0.4c0.7-0.1,1.3-0.2,2-0.2c0.1,0,0.1,0,0.2,0h6.4c0.3,0,0.6,0.1,0.6,0.2c0,0.6-0.1,1.5-0.4,2.5
		s-0.6,1.9-0.8,2.5c-0.1,0.2-0.2,0.3-0.3,0.3c-0.1,0-0.2,0-0.2-0.1c-0.1-0.1-0.1-0.2-0.1-0.4c-0.1-1.3-0.4-2.6-1-3.6H306h-1
		c0,0.6,0,1.2,0,2.1c0,0.2,0,0.4,0,0.8c0,1,0,2.5-0.1,4.2c-0.1,1.8,0,3.3,0,4.7c0,1,0,1.8,0.1,2.5c0,0.7,0.1,1.2,0.2,1.7h4.6
		c0-0.1-0.1-0.3-0.1-0.7c-0.1-0.3-0.2-0.9-0.4-1.3c-0.2-0.6-0.4-1.1-0.8-1.7c-0.3-0.6-0.7-0.9-0.9-1.2c-0.2-0.3-0.6-0.7-0.9-1
		s-0.6-0.6-0.7-0.8c-0.1-0.2-0.2-0.4-0.3-0.8c0-0.1-0.1-0.2-0.1-0.3c0-0.2,0.1-0.6,0.2-0.8c0.2-0.2,0.4-0.4,0.8-0.7
		c1-0.6,1.7-0.8,2-0.8c0.1,0,0.1,0,0.2,0c0,0,0,0.1-0.1,0.1s-0.2,0.2-0.2,0.3c-0.1,0.1-0.1,0.3-0.1,0.7c0,0.2,0.1,0.6,0.3,0.9
		c0.2,0.3,0.6,0.7,1,1.2c0.7,0.7,1.1,1.3,1.4,1.9C311.2,82.4,311.5,83.3,311.9,84.2z"/>
	<path class="st0" d="M325.6,79c0,0.2,0,0.6,0,1c-0.1,1.8-0.7,3.3-1.4,4.5c-0.9,1.3-2.3,2.3-4.1,3.2c-0.3,0.2-0.9,0.4-1.4,0.7
		c-0.6,0.2-0.9,0.2-0.9,0.1c-0.1-0.6-0.3-1-0.6-1.5c-0.2-0.4-0.6-1-0.9-1.7c-0.6-1.1-1-1.9-1.3-2.6c-0.4-1.1-0.7-2.2-0.7-3.6
		c0-0.6,0-1,0.1-1.5c0.2-2,0.8-3.6,1.7-4.7c0.7-0.9,1.4-1.6,2.4-2.1c1-0.6,2.1-1,3.2-1.3c0.1,0,0.2,0,0.3,0s0.2,0,0.2,0
		c0.1,0.4,0.3,1,0.6,1.5c0.2,0.4,0.6,1,0.9,1.8c0.1,0.1,0.2,0.4,0.4,0.9c0.2,0.4,0.4,0.9,0.7,1.3C325.3,76.3,325.6,77.6,325.6,79z
		 M322.8,80.3c0-1.7-0.3-3.2-1.1-4.8c-0.2-0.4-0.6-1-0.8-1.3c-0.1-0.1-0.2-0.3-0.4-0.8c-0.2-0.4-0.4-0.8-0.6-1.1
		c-0.2-0.3-0.3-0.7-0.3-1c-0.2,0.2-0.3,0.3-0.6,0.6c-0.4,0.6-0.8,1.2-1,1.9c-0.6,1.3-0.8,2.8-0.8,4.4s0.3,3,1,4.5
		c0.1,0.2,0.4,0.8,0.9,1.6c0.2,0.4,0.4,0.9,0.8,1.3c0.2,0.4,0.4,0.9,0.6,1.3c0.7-0.7,1.2-1.6,1.8-2.7
		C322.5,82.9,322.8,81.6,322.8,80.3z"/>
	<path class="st0" d="M337.3,69.7c0.1,0,0.2,0.1,0.2,0.1c0,0.6-0.1,1.5-0.4,2.8s-0.6,2.1-0.8,2.6c-0.1,0.2-0.2,0.3-0.4,0.3
		c-0.2,0-0.3-0.2-0.3-0.6c-0.1-1.3-0.4-2.7-1.1-3.9h-3.1c0,0.2,0,0.4,0,0.9c0,0.6,0,1.2-0.1,2.1c0,1.1,0,2.7-0.1,4.6
		c0,1.9,0,3.5,0,4.7s0,2.1,0.1,2.9s0.2,1.3,0.6,1.7c0.1,0.2-0.2,0.3-0.9,0.4c-0.7,0.1-1.4,0.2-2.1,0.2h-0.4c-0.1,0-0.2-0.2-0.3-0.6
		c-0.1-0.3-0.1-0.8-0.1-1.5c0-0.3,0-1.2,0.1-2.5c0.2-5,0.2-8.3,0.2-9.5c0-1.1-0.1-1.9-0.2-2.6s-0.3-1.2-0.7-1.7
		c-0.1-0.2,0.2-0.3,0.9-0.4c0.8-0.1,1.4-0.2,2.1-0.2h6.2C337,69.6,337.2,69.6,337.3,69.7z"/>
	<path class="st0" d="M350.7,79c0,0.2,0,0.6,0,1c-0.1,1.8-0.7,3.3-1.4,4.5c-0.9,1.3-2.3,2.3-4.1,3.2c-0.3,0.2-0.9,0.4-1.4,0.7
		c-0.6,0.2-0.9,0.2-0.9,0.1c-0.1-0.6-0.3-1-0.6-1.5c-0.2-0.4-0.6-1-0.9-1.7c-0.6-1.1-1-1.9-1.3-2.6c-0.4-1.1-0.7-2.2-0.7-3.6
		c0-0.6,0-1,0.1-1.5c0.2-2,0.8-3.6,1.7-4.7c0.7-0.9,1.4-1.6,2.4-2.1c1-0.6,2.1-1,3.2-1.3c0.1,0,0.2,0,0.3,0c0.1,0,0.2,0,0.2,0
		c0.1,0.4,0.3,1,0.6,1.5c0.2,0.4,0.6,1,0.9,1.8c0.1,0.1,0.2,0.4,0.4,0.9c0.2,0.4,0.4,0.9,0.7,1.3C350.4,76.3,350.7,77.6,350.7,79z
		 M347.8,80.3c0-1.7-0.3-3.2-1.1-4.8c-0.2-0.4-0.6-1-0.8-1.3c-0.1-0.1-0.2-0.3-0.4-0.8c-0.2-0.4-0.4-0.8-0.6-1.1
		c-0.2-0.3-0.3-0.7-0.3-1c-0.2,0.2-0.3,0.3-0.6,0.6c-0.4,0.6-0.8,1.2-1,1.9c-0.6,1.3-0.8,2.8-0.8,4.4s0.3,3,1,4.5
		c0.1,0.2,0.4,0.8,0.9,1.6c0.2,0.4,0.4,0.9,0.8,1.3c0.2,0.4,0.4,0.9,0.6,1.3c0.7-0.7,1.2-1.6,1.8-2.7
		C347.6,82.9,347.8,81.6,347.8,80.3z"/>
	<path class="st0" d="M360.7,81.1c-0.3,0.2-0.6,0.3-0.7,0.4c-0.8,0.4-1.3,0.6-1.8,0.6c-0.6,0-0.9-0.1-1.2-0.3
		c-0.3-0.2-0.4-0.6-0.4-1c0-0.2,0-0.3,0.1-0.7c0.1-0.2,0.2-0.4,0.3-0.6c0.1-0.2,0.3-0.3,0.6-0.6c0.7-0.6,1.1-1.2,1.6-2
		c0.4-0.8,0.8-1.6,1-2.5s0.3-1.8,0.3-2.7c0-0.3,0-0.6,0-0.8h-4.1c0,0.4,0,1.2,0,2.1c0,0.2,0,0.4,0,0.8V75c0,1.5,0,2.6,0,3.5V82v0.8
		c0,1.2,0,2.3,0.1,3.1c0.1,0.8,0.2,1.5,0.6,1.8c0.1,0.2-0.1,0.3-0.9,0.4c-0.7,0.1-1.4,0.2-2.1,0.2h-0.4c-0.3,0-0.4-0.7-0.4-1.9
		c0-0.7,0-1.3,0.1-1.9V84c0-1.2,0-2.7,0.1-4.6c0-1.9,0-3.5,0-4.9c0-1.1-0.1-2-0.2-2.7s-0.3-1.2-0.7-1.7c-0.1-0.2,0.2-0.3,0.9-0.4
		c0.8-0.1,1.4-0.2,2.1-0.2h7.7h0.1c0.3,0,0.6,0.1,0.6,0.3c0,1.8-0.3,3.2-0.9,4.4c-0.6,1.1-1.1,1.9-1.6,2.3s-0.7,0.7-0.8,0.8
		l-0.3,0.3c-0.3,0.3-0.6,0.6-0.7,0.9c-0.1,0.2-0.2,0.6-0.2,0.9s0.1,0.7,0.3,0.9c0.2,0.2,0.6,0.3,1,0.3
		C361,80.7,360.9,80.9,360.7,81.1z"/>
	<path class="st0" d="M377.1,79c0,0.2,0,0.6,0,1c-0.1,1.8-0.7,3.3-1.4,4.5c-0.9,1.3-2.3,2.3-4.1,3.2c-0.3,0.2-0.9,0.4-1.4,0.7
		c-0.6,0.2-0.9,0.2-0.9,0.1c-0.1-0.6-0.3-1-0.6-1.5c-0.2-0.4-0.6-1-0.9-1.7c-0.6-1.1-1-1.9-1.3-2.6c-0.4-1.1-0.7-2.2-0.7-3.6
		c0-0.6,0-1,0.1-1.5c0.2-2,0.8-3.6,1.7-4.7c0.7-0.9,1.4-1.6,2.4-2.1c1-0.6,2.1-1,3.2-1.3c0.1,0,0.2,0,0.3,0c0.1,0,0.2,0,0.2,0
		c0.1,0.4,0.3,1,0.6,1.5c0.2,0.4,0.6,1,0.9,1.8c0.1,0.1,0.2,0.4,0.4,0.9c0.2,0.4,0.4,0.9,0.7,1.3C376.9,76.3,377.1,77.6,377.1,79z
		 M374.3,80.3c0-1.7-0.3-3.2-1.1-4.8c-0.2-0.4-0.6-1-0.8-1.3c-0.1-0.1-0.2-0.3-0.4-0.8c-0.2-0.4-0.4-0.8-0.6-1.1
		c-0.2-0.3-0.3-0.7-0.3-1c-0.2,0.2-0.3,0.3-0.6,0.6c-0.4,0.6-0.8,1.2-1,1.9c-0.6,1.3-0.8,2.8-0.8,4.4s0.3,3,1,4.5
		c0.1,0.2,0.4,0.8,0.9,1.6c0.2,0.4,0.4,0.9,0.8,1.3c0.2,0.4,0.4,0.9,0.6,1.3c0.7-0.7,1.2-1.6,1.8-2.7
		C374,82.9,374.3,81.6,374.3,80.3z"/>
	<path class="st0" d="M393.9,87.3L393.9,87.3c0,0.6-0.2,1.6-0.6,2.9c-0.3,1.3-0.6,2.2-0.8,2.7c-0.1,0.2-0.2,0.3-0.3,0.3
		s-0.2,0-0.2-0.1c-0.1-0.1-0.1-0.2-0.1-0.4c-0.1-1.6-0.6-3-1.3-4.2h-8.1c-0.3,0.4-0.7,1.1-0.9,1.8c-0.2,0.7-0.4,1.6-0.4,2.5
		c0,0.3-0.1,0.6-0.3,0.6c-0.1,0-0.3-0.1-0.3-0.3c-0.2-0.4-0.4-1.2-0.8-2.2c-0.3-1-0.4-1.8-0.4-2.3c0,0,0,0,0-0.1
		c0.1-0.1,0.3-0.3,0.6-0.4c0.2-0.1,0.7-0.3,1.1-0.4c0-0.1,0-0.4,0-0.8c0-0.9,0-1.7,0.1-2.5c0.1-0.9,0.3-1.8,0.6-2.8
		c0.2-0.9,0.7-2,1.3-3.2c0.7-1.2,1.7-2.5,2.9-3.5c-0.3-0.8-0.7-1.5-0.8-2c-0.1-0.4-0.2-0.9-0.2-1.3c0-0.3,0.2-0.7,0.6-1
		c0.3-0.2,0.8-0.4,1.1-0.6c0.6-0.2,0.9-0.3,1.1-0.3c0.1,0,0.2,0,0.2,0.1c0,0,0,0.1,0,0.3c0,0.2,0,0.3,0,0.7c0,0.7,0.6,2.3,1.7,4.8
		c0.6,1.5,1.2,3.1,1.8,5.2s0.9,3.6,1.1,4.4c0.1,0.9,0.3,1.6,0.6,2h0.8C393.8,86.9,393.9,87,393.9,87.3z M383.8,83.6
		c0,1.3,0.1,2.5,0.4,3.2h5c-0.1-0.9-0.2-1.7-0.3-2.3c-0.3-1.7-0.8-3.3-1.2-4.9c-0.4-1.6-1-3-1.4-4c-1.2,1.3-2.1,3.7-2.3,6.9
		C383.8,83.1,383.8,83.4,383.8,83.6z"/>
	<path class="st0" d="M406.4,88.2c-0.7,0.1-1.4,0.2-2.1,0.2h-0.4c-0.3,0-0.4-0.7-0.4-2c0-0.3,0-1.1,0.1-2.3l0.2-6.5
		c-1.2,1-2.3,2-3.2,3.2c-0.9,1.2-1.3,2.2-1.3,3.1v0.8c0,0.7,0.1,1.3,0.2,1.8s0.2,0.9,0.4,1.1c0.1,0.2-0.2,0.3-0.9,0.4
		c-0.7,0.1-1.4,0.2-2.1,0.2h-0.4c-0.3,0-0.4-0.7-0.4-1.9c0-0.7,0-1.2,0.1-1.8V84c0-0.3,0-1.6,0.1-3.8c0.1-2.8,0.1-4.8,0.1-6
		c0-1,0-1.7-0.1-2c-0.1-0.4-0.2-0.8-0.6-1.2c-0.1-0.1,0-0.3,0.4-0.6c0.3-0.2,0.9-0.4,1.4-0.7c0.6-0.2,1-0.2,1.3-0.2s0.4,0.8,0.4,2.2
		c0,0.6,0,1.3-0.1,2.2c0,0,0,0.7,0,2.2c0,0.7,0,1.8,0,3.3c0.6-0.7,1.2-1.2,2-1.7c0.8-0.4,1.6-1,2.6-1.5v-1.7c0-1.1,0-1.9-0.1-2.3
		s-0.2-0.9-0.6-1.3c-0.1-0.1,0-0.3,0.4-0.6c0.3-0.2,0.9-0.4,1.4-0.7c0.6-0.2,1-0.2,1.3-0.2s0.4,0.7,0.4,2.1c0,0.3,0,1.1-0.1,2.3
		c0,1.1,0,2.7-0.1,4.6c0,1.9,0,3.5,0,4.7s0,2.1,0.1,2.9s0.2,1.3,0.6,1.7C407.4,88,407.1,88.1,406.4,88.2z"/>
	<path class="st0" d="M421.5,87.3c0,0.6-0.2,1.5-0.6,2.8c-0.3,1.3-0.6,2.2-0.8,2.6c-0.1,0.2-0.2,0.3-0.3,0.3c-0.1,0-0.2,0-0.2-0.1
		c-0.1-0.1-0.1-0.2-0.1-0.4c0-0.9-0.2-1.7-0.4-2.3c-0.2-0.7-0.6-1.3-0.9-1.8h-7.9H410c-0.3,0-0.4-0.7-0.4-1.9c0-0.3,0-0.8,0-1.3v-1
		V83c0-0.6,0.1-1.9,0.1-4c0.1-2.1,0.1-3.6,0.1-4.4c0-1.1,0-1.9-0.1-2.3s-0.2-0.9-0.6-1.3c-0.1-0.1,0-0.3,0.4-0.6
		c0.3-0.2,0.9-0.4,1.4-0.7c0.6-0.2,1-0.2,1.3-0.2s0.4,0.8,0.4,2.1c0,0.4,0,0.9,0,1.5v0.8c0,0.4,0,1.9-0.1,4.4c0,2.3,0,4.1,0,5.1
		c0,0.9,0,1.6,0.1,2.1c0,0.6,0.1,1.1,0.3,1.5h3.7c0-0.7,0-1.5,0-2.2V84c0.2-5.5,0.2-8.7,0.2-9.8c0-0.9,0-1.6-0.1-2s-0.2-0.8-0.6-1.2
		c-0.1-0.1,0-0.3,0.4-0.6c0.3-0.2,0.9-0.4,1.4-0.7c0.5-0.3,1-0.2,1.3-0.2s0.4,0.8,0.4,2.1c0,0.4,0,0.9,0,1.5v0.8
		c0,0.4,0,1.8-0.1,3.8c0,2,0,3.8,0,5.1c0,1,0,1.9,0.1,2.5c0,0.7,0.1,1.2,0.3,1.7C421.1,87,421.5,87.1,421.5,87.3z"/>
	<path class="st0" d="M434.5,87.1c0,0.2-0.2,0.4-0.7,0.7c-0.4,0.2-0.7,0.2-0.7,0.3c-0.3,0.1-0.6,0.2-0.8,0.3
		c-0.2,0.1-0.4,0.1-0.7,0.1H424c-0.2,0-0.3-0.1-0.3-0.3c0-0.2-0.1-0.7-0.1-1.2c0-1.2,0.1-2.5,0.1-3.8c0.1-1.3,0.1-2.6,0.2-3.8
		c0-0.3,0.1-1,0.1-2c0.1-0.9,0.1-1.8,0.1-2.6v-0.4c0-0.7,0-1.3-0.1-1.9s-0.2-1-0.6-1.3c-0.1-0.1,0.1-0.3,0.6-0.6
		c0.5-0.3,1-0.4,1.6-0.7s1.1-0.2,1.4-0.2c0.2,0,0.3,0.6,0.3,1.6c0,0.6,0,1.2-0.1,1.7l-0.1,1.2l-0.2,2.6c-0.1,2-0.2,3.5-0.3,4.6
		c0,0.6-0.1,1.3-0.1,2.3v1.2c0,0.6,0,1.1,0.1,1.6c0.1,0.6,0.1,0.8,0.2,0.8h4.7c-0.3-2.5-1.2-4.4-2.6-5.9l-0.4-0.4
		c-0.4-0.4-0.7-0.8-0.9-1c-0.2-0.3-0.3-0.6-0.2-0.9c0-0.4,0.2-0.8,0.6-1c0.3-0.2,0.7-0.6,1.2-0.8c0.8-0.3,1.4-0.6,1.8-0.6
		c0.1,0,0.2,0,0.2,0s-0.1,0.1-0.2,0.2s-0.2,0.2-0.3,0.2c-0.1,0.2-0.2,0.4-0.2,0.6c0,0.4,0.2,1,0.7,1.5l0.3,0.4
		c0.6,0.6,0.9,1,1.1,1.2C433.6,82.2,434.3,84.4,434.5,87.1z M439.5,88.3c-0.7,0.1-1.4,0.2-2.1,0.2H437c-0.3,0-0.4-0.7-0.4-2
		c0-0.3,0-1.2,0.1-2.5c0.2-5.5,0.2-8.7,0.2-9.8c0-1,0-1.7-0.1-2c-0.1-0.4-0.2-0.8-0.6-1.2c-0.1-0.1,0-0.3,0.4-0.6
		c0.3-0.2,0.9-0.4,1.4-0.7c0.6-0.2,1-0.2,1.3-0.2s0.4,0.7,0.4,2.1c0,0.4,0,0.9,0,1.6V74c0,0.4,0,1.9-0.1,4.1c0,2.2,0,4,0,5.2
		c0,1.1,0,2.1,0.1,2.9s0.2,1.3,0.6,1.7C440.5,88,440.2,88.2,439.5,88.3z"/>
</g>
</svg>
